# xmcd
#
# Track frame offsets: 
#        150
#        8165
#        23110
#        35447
#        50177
#        62590
#        72875
#        87707
#        98097
#        114815
#        126062
#        138080
#        153440
#        168955
#        183632
#        198357
#        210482
#        218967
#        230150
#        242720
#
# Disc length: 3354 seconds
#
# Revision: 2
# Processed by: cddbd v1.5.2PL0 Copyright (c) Steve Scherf et al.
# Submitted via: ExactAudioCopyFreeDBPlugin 1.0
#
DISCID=170d1814
DTITLE=Various Artist - Country Funnies
DYEAR=2001
DGENRE=Country
TTITLE0=Roger Miller - Dang Me
TTITLE1=Jeannie C. Riley - Harper Valley P.T.A.
TTITLE2=Moe Bandy - Just Good 'Ol Boys
TTITLE3=Bellamy Brothers - If I Said You Had  A Beautiful Body Would Y
TTITLE3=ou Hold It Against Me
TTITLE4=Johnny Paycheck - Taake This Job And Shove It
TTITLE5=Everly Brothers - Bird Dog
TTITLE6=Ray Stevens - Streak, The
TTITLE7=Dave Dudley - Six Days On The Road
TTITLE8=Eddy Raven - Joe Knows How To Live
TTITLE9=Roger Miller - King Of The Road
TTITLE10=Jody Miller - Queen Of The House
TTITLE11=Loni Donegan - Does Your Chewing Gum Lose It's Flavor (On The
TTITLE11=Bedpost Overnight)
TTITLE12=Cal Smith - County Bumpkin
TTITLE13=April Stevens and Nino Tempo - Jackson
TTITLE14=Ed Bruce - Girls Woman and Ladies
TTITLE15=Donna Fargo - Funny Face
TTITLE16=Faron Young - I've Got A Tiger By The Tail
TTITLE17=Little Jimmy Dickens - May The Bird Of Paradise Fly Up Your N
TTITLE17=ose
TTITLE18=Bill Anderson - Po' Folks
TTITLE19=Meri Wilson - Telephone Man
EXTD=
EXTT0=
EXTT1=
EXTT2=
EXTT3=
EXTT4=
EXTT5=
EXTT6=
EXTT7=
EXTT8=
EXTT9=
EXTT10=
EXTT11=
EXTT12=
EXTT13=
EXTT14=
EXTT15=
EXTT16=
EXTT17=
EXTT18=
EXTT19=
PLAYORDER=
